<?xml version="1.0" encoding="UTF-8" standalone="no"?>
<!DOCTYPE svg PUBLIC "-//W3C//DTD SVG 1.1//EN" "http://www.w3.org/Graphics/SVG/1.1/DTD/svg11.dtd">
<svg width="100%" height="100%" viewBox="0 0 7500 1417" version="1.1" xmlns="http://www.w3.org/2000/svg" xmlns:xlink="http://www.w3.org/1999/xlink" xml:space="preserve" xmlns:serif="http://www.serif.com/" style="fill-rule:evenodd;clip-rule:evenodd;stroke-linejoin:round;stroke-miterlimit:2;">
    <g transform="matrix(4.16667,0,0,4.16667,-1879.56,-1014.71)">
        <g id="Layer-1" serif:id="Layer 1">
            <g>
                <g transform="matrix(1,0,0,1,1138.87,369.275)">
                    <path d="M0,1.136C-7.24,17.838 -14.092,29.915 -20.545,37.363C-27.004,44.815 -33.728,50.034 -40.718,53.023C-47.708,56.012 -57.94,57.508 -71.416,57.508L-87.216,57.508L-37.775,-56.515L-21.69,-56.515C-4.988,-56.515 5.2,-52.433 8.873,-44.272C12.546,-36.109 9.589,-20.975 0,1.136M-161.554,80.24L-180.379,-25.004L-87.009,-91.678L-161.554,80.24ZM75.72,-74.022C72.284,-83.607 65.866,-90.96 56.464,-96.086C47.059,-101.209 32.917,-103.772 14.033,-103.772L-155.833,-103.772L-257.574,-24.915L-223.379,-103.772L-287.862,-103.772L-338.711,13.498C-338.679,10.965 -338.86,8.503 -339.264,6.116C-340.826,-3.087 -346.354,-10.796 -355.854,-17.013C-365.353,-23.226 -382.878,-29.374 -408.429,-35.445C-418.788,-37.817 -424.889,-40.38 -426.732,-43.134C-428.713,-45.789 -428.982,-48.778 -427.542,-52.101C-425.565,-56.656 -421.993,-60.519 -416.817,-63.702C-411.643,-66.88 -405.307,-68.472 -397.81,-68.472C-388.7,-68.472 -382.486,-66.336 -379.165,-62.065C-375.843,-57.795 -375.417,-50.961 -377.875,-41.569L-315.552,-45.125C-308.826,-66.762 -310.313,-82.538 -320.01,-92.454C-329.708,-102.373 -347.888,-107.331 -374.554,-107.331C-396.286,-107.331 -414.575,-104.601 -429.418,-99.148C-444.264,-93.688 -456.862,-86.193 -467.213,-76.656C-477.565,-67.119 -485.066,-56.986 -489.716,-46.263C-496.793,-29.943 -496.541,-16.516 -488.96,-5.981C-481.478,4.554 -464.974,12.998 -439.452,19.359C-423.826,23.153 -414.567,27.187 -411.675,31.455C-408.78,35.726 -408.508,40.566 -410.853,45.975C-413.32,51.672 -417.981,56.678 -424.838,60.993C-431.692,65.314 -439.721,67.469 -448.926,67.469C-461.263,67.469 -468.921,63.251 -471.903,54.801C-473.72,49.585 -473.132,41.991 -470.139,32.025L-533.157,35.868C-540.49,56.938 -540.284,74.304 -532.546,87.969C-524.806,101.635 -503.189,108.467 -467.698,108.467C-447.484,108.467 -429.472,105.549 -413.656,99.713C-397.838,93.875 -383.783,85.314 -371.482,74.017C-367.069,69.966 -363.082,65.777 -359.505,61.457L-378.346,104.908L-313.864,104.908L-291.784,53.984L-243.335,19.085L-236.55,104.908L-76.451,104.908C-64.969,104.908 -51.335,103.011 -35.551,99.211C-24.013,96.463 -11.937,90.932 0.68,82.63C13.293,74.326 24.804,64.03 35.211,51.738C45.616,39.452 55.653,22.157 65.325,-0.145C71.497,-14.38 75.629,-27.853 77.729,-40.571C79.824,-53.287 79.156,-64.433 75.72,-74.022" style="fill:rgb(246,215,56);fill-rule:nonzero;"/>
                </g>
                <g transform="matrix(1,0,0,1,1770.7,392.476)">
                    <path d="M0,-45.268C-9.271,-43.369 -15.378,-42.421 -18.318,-42.421L-45.508,-42.421L-27.112,-84.84L1.215,-84.84C12.981,-84.84 20.217,-83.038 22.926,-79.431C25.635,-75.825 25.523,-70.651 22.605,-63.915C20.628,-59.358 17.528,-55.326 13.302,-51.816C9.074,-48.305 4.639,-46.121 0,-45.268M447.993,-68.327C454.72,-89.964 453.232,-105.74 443.536,-115.656C433.837,-125.575 415.657,-130.533 388.991,-130.533C367.26,-130.533 348.973,-127.803 334.128,-122.35C319.281,-116.89 306.684,-109.395 296.331,-99.858C285.979,-90.321 278.479,-80.188 273.828,-69.465C266.751,-53.145 267.006,-39.719 274.584,-29.183C282.069,-18.648 298.574,-10.204 324.094,-3.843C339.72,-0.049 348.98,3.986 351.87,8.253C354.766,12.524 355.037,17.364 352.692,22.773C350.226,28.47 345.563,33.476 338.707,37.791C331.851,42.112 323.824,44.268 314.619,44.268C302.282,44.268 294.623,40.049 291.643,31.599C289.827,26.383 290.412,18.79 293.405,8.823L230.391,12.667C227.687,20.43 226.013,27.69 225.356,34.447L116.462,34.447L134.299,-6.691L234.652,-6.691L253.109,-49.256L152.757,-49.256L167.138,-82.42L275.319,-82.42L294.64,-126.974L121.832,-126.974L39.595,62.689L36.159,21.239C35.961,18.198 34.823,13.878 32.747,8.274C30.676,2.669 28.825,-0.989 27.196,-2.701C24.795,-5.263 20.312,-7.828 13.744,-10.392C24.282,-12.576 33.021,-15.327 39.972,-18.648C50.872,-23.869 60.615,-30.678 69.191,-39.076C77.771,-47.475 84.573,-57.46 89.595,-69.039C95.353,-82.326 97.013,-93.592 94.573,-102.847C92.128,-112.097 86.385,-118.432 77.333,-121.848C68.283,-125.266 53.791,-126.974 33.862,-126.974L-136.17,-126.974L-208.824,-56.577L-220.343,-126.974L-465.773,-126.974L-488.118,-75.444L-422.354,-75.444L-490.496,81.706L-426.012,81.706L-357.873,-75.444L-292.108,-75.444L-284.132,-93.839L-263.279,-5.694L-301.176,81.706L-236.55,81.706L-198.654,-5.694L-79.233,-114.001L-164.093,81.706L-99.325,81.706L-62.604,-2.992L-56.91,-2.992C-51.026,-2.992 -46.457,-1.376 -43.206,1.848C-40.86,4.32 -39.295,9.677 -38.509,17.933L-31.691,81.706L207.286,81.706L225.043,40.751C225.038,49.734 227.021,57.741 230.998,64.768C238.741,78.433 260.354,85.265 295.846,85.265C316.059,85.265 334.073,82.347 349.89,76.511C365.704,70.673 379.763,62.112 392.062,50.815C404.36,39.524 413.411,27.188 419.216,13.805C424.153,2.418 425.839,-7.878 424.281,-17.085C422.719,-26.289 417.191,-33.997 407.689,-40.215C398.191,-46.428 380.667,-52.576 355.116,-58.647C344.757,-61.019 338.655,-63.581 336.813,-66.335C334.832,-68.991 334.563,-71.98 336.002,-75.303C337.98,-79.858 341.555,-83.721 346.726,-86.905C351.901,-90.081 358.24,-91.675 365.736,-91.675C374.848,-91.675 381.059,-89.538 384.381,-85.267C387.701,-80.997 388.129,-74.163 385.669,-64.771L447.993,-68.327Z" style="fill:white;fill-rule:nonzero;"/>
                </g>
                <g transform="matrix(1,0,0,1,2138.65,554.081)">
                    <path d="M0,-40.471L-1324.49,-40.471C-1324.49,-40.471 -1456.93,-51.508 -1659.29,11.037L0,-40.471Z" style="fill:white;fill-rule:nonzero;"/>
                </g>
            </g>
        </g>
    </g>
</svg>
